<?xml version="1.0" encoding="utf-8"?>
<!-- Generator: Adobe Illustrator 16.0.0, SVG Export Plug-In . SVG Version: 6.00 Build 0)  -->
<!DOCTYPE svg PUBLIC "-//W3C//DTD SVG 1.1//EN" "http://www.w3.org/Graphics/SVG/1.1/DTD/svg11.dtd">
<svg version="1.1" xmlns="http://www.w3.org/2000/svg" xmlns:xlink="http://www.w3.org/1999/xlink" x="0px" y="0px" width="165px"
	 height="165px" viewBox="0 0 165 165" enable-background="new 0 0 165 165" xml:space="preserve">
<g id="correo" display="none">
	<g display="inline">
		<g>
			<g>
				<path fill="#8CBF3F" d="M19.936,26.181c-6.53,0-11.843,5.312-11.843,11.843v88.954c0,6.529,5.312,11.842,11.843,11.842h125.126
					c6.531,0,11.844-5.312,11.844-11.842V38.023c0-6.53-5.312-11.843-11.844-11.843H19.936z M146.842,132.923H18.158L64.639,86.44
					l16.082,15.941c1.115,1.107,3.048,1.104,4.16-0.008l15.707-15.703L146.842,132.923z M13.988,128.755V36.22l46.466,46.07
					L13.988,128.755z M151.012,128.755l-46.258-46.254l46.258-46.259V128.755z M82.787,96.132l-64.61-64.059h128.665L82.787,96.132z
					"/>
			</g>
		</g>
	</g>
</g>
<g id="videoconsulta">
	<g>
		<g>
			<path fill="#8CBF3F" d="M149.155,36.798h-29.398c-1.264,0-2.289,1.022-2.289,2.288c0,1.262,1.025,2.289,2.289,2.289h29.398
				c3.783,0,6.861,3.076,6.861,6.861v77.677c0,3.784-3.078,6.864-6.861,6.864H91.439h-0.023h-0.024H73.608h-0.023h-0.023H15.846
				c-3.784,0-6.862-3.08-6.862-6.864V48.236c0-3.785,3.078-6.861,6.862-6.861H53.63v2.298c0,0.767,0.033,1.522,0.092,2.274H16.76
				c-1.765,0-3.203,1.438-3.203,3.203v56.745c0,1.261,1.025,2.286,2.289,2.286s2.289-1.025,2.289-2.286V50.524h36.309
				c1.955,8.136,7.308,14.956,14.453,18.829v5.128c0,1.2-0.767,2.263-1.907,2.646l-22.084,7.427
				c-7.148,2.398-11.953,9.076-11.953,16.613v22.458H18.134v-7.054c0-1.265-1.025-2.288-2.289-2.288s-2.289,1.023-2.289,2.288V125
				c0,1.766,1.438,3.204,3.203,3.204h131.479c1.767,0,3.202-1.438,3.202-3.204V49.151c0-1.766-1.436-3.203-3.202-3.203H111.3
				c0.046-0.656,0.069-1.32,0.069-1.986V18.235c0-7.625-6.203-13.828-13.829-13.828H67.459c-7.625,0-13.83,6.202-13.83,13.828
				v18.563H15.846c-6.307,0-11.438,5.127-11.438,11.438v77.677c0,6.309,5.132,11.439,11.438,11.439h55.45v9.512h-2.89
				c-5.803,0-10.524,4.724-10.524,10.523c0,1.769,1.435,3.204,3.203,3.204h42.829c1.768,0,3.204-1.436,3.204-3.204
				c0-5.8-4.721-10.523-10.522-10.523h-2.891v-9.512h55.45c6.307,0,11.438-5.131,11.438-11.439V48.236
				C160.593,41.926,155.462,36.798,149.155,36.798 M127.473,123.625H37.529v-22.458c0-5.568,3.551-10.504,8.835-12.277l5.168-1.737
				c-0.294,1.665-0.42,3.357-0.355,5.064c0.06,1.558,0.271,3.103,0.633,4.617c-5.004,1.313-8.704,5.874-8.704,11.283v7.527
				c0,2.131,1.73,3.866,3.861,3.866h2.14c1.264,0,2.287-1.024,2.287-2.288c0-1.265-1.023-2.289-2.287-2.289h-1.426v-6.816
				c0-3.907,3.177-7.085,7.083-7.089h0.005h0.007c3.906,0.006,7.082,3.185,7.082,7.089v6.815H60.43
				c-1.261,0-2.286,1.025-2.286,2.287c0,1.267,1.024,2.289,2.286,2.289h2.14c2.129,0,3.862-1.733,3.862-3.864v-7.527
				c0-5.854-4.335-10.712-9.961-11.537c-0.42-1.481-0.663-3-0.721-4.536c-0.084-2.249,0.224-4.471,0.911-6.617l10.271-3.454
				l12.911,12.9c1.604,1.603,4.217,1.603,5.823,0l12.781-12.772l11.23,3.777c0.818,2.138,1.233,4.442,1.215,6.722
				c-0.021,2.046-0.4,4.111-1.101,6.044c-5.032,0.773-8.899,5.13-8.899,10.372c0,5.784,4.709,10.493,10.5,10.493
				s10.502-4.709,10.502-10.493c0-4.707-3.119-8.699-7.399-10.026c0.615-2.06,0.952-4.211,0.974-6.348
				c0.017-1.666-0.16-3.347-0.511-4.989l3.68,1.237c5.282,1.773,8.835,6.707,8.835,12.277V123.625z M94.049,80.029L82.755,91.312
				L71.212,79.783c1.411-1.359,2.258-3.253,2.258-5.305V71.34c2.812,0.938,5.812,1.454,8.928,1.465h0.104
				c3.113,0,6.151-0.491,9.025-1.432v3.104C91.527,76.653,92.482,78.661,94.049,80.029 M111.39,103.101h0.006
				c3.268,0,5.923,2.655,5.923,5.915c0,3.263-2.657,5.917-5.926,5.917c-3.266,0-5.922-2.654-5.922-5.917
				C105.471,105.756,108.126,103.103,111.39,103.101 M110.622,50.524h36.244v73.101h-14.819v-22.458
				c0-7.536-4.804-14.214-11.953-16.616l-22.083-7.423c-1.141-0.383-1.906-1.447-1.906-2.65v-5.063
				c2.462-1.318,4.746-3.003,6.784-5.031C106.771,60.512,109.413,55.731,110.622,50.524 M58.207,18.235
				c0-5.103,4.151-9.253,9.253-9.253H97.54c5.102,0,9.254,4.15,9.254,9.253v13.711c-2.327-0.266-5.192-0.96-8.132-2.591
				c-2.589-1.436-4.828-3.357-6.654-5.71c-1.175-1.512-3.341-1.872-4.932-0.819c-3.132,2.077-6.479,3.838-9.942,5.231
				c-6.011,2.417-12.365,3.755-18.927,3.991V18.235z M58.207,36.63c7.15-0.238,14.081-1.69,20.633-4.329
				c3.499-1.404,6.879-3.155,10.069-5.204c2.109,2.551,4.642,4.656,7.535,6.26c3.776,2.091,7.453,2.918,10.35,3.19v7.415
				c0,6.494-2.536,12.593-7.136,17.178c-1.975,1.97-4.23,3.555-6.673,4.726c-0.099,0.036-0.197,0.084-0.29,0.136
				c-3.179,1.47-6.666,2.24-10.282,2.227c-13.347-0.046-24.207-11.062-24.207-24.555C58.207,43.645,58.205,36.655,58.207,36.63
				 M75.872,137.353H89.13v9.512H75.872V137.353z M96.596,151.44c2.805,0,5.165,1.957,5.785,4.576H62.618
				c0.622-2.619,2.979-4.576,5.788-4.576H96.596z"/>
		</g>
	</g>
</g>
<g id="seguridad" display="none">
	<g display="inline">
		<path fill="#8CBF3F" d="M82.498,164.257l-0.981-0.339c-30.38-10.532-49.762-28.161-59.254-53.897
			c-8.13-22.041-7.668-46.3-7.259-67.706c0.087-4.549,0.169-8.847,0.169-13.019v-2.993h2.993c25.941,0,45.721-7.485,62.246-23.556
			l2.087-2.031l2.086,2.031c16.527,16.071,36.31,23.556,62.253,23.556h2.991v2.993c0,4.171,0.082,8.47,0.171,13.017
			c0.405,21.405,0.869,45.666-7.262,67.707c-9.494,25.734-28.879,43.365-59.26,53.897L82.498,164.257z M21.146,32.257
			c-0.026,3.289-0.091,6.656-0.158,10.173c-0.398,20.875-0.85,44.535,6.89,65.519c8.732,23.674,26.604,40.025,54.62,49.968
			c28.019-9.942,45.89-26.296,54.624-49.968c7.739-20.984,7.289-44.645,6.89-65.521c-0.066-3.516-0.13-6.882-0.156-10.171
			c-25.093-0.54-44.727-7.978-61.357-23.248C65.869,24.279,46.236,31.717,21.146,32.257z"/>
	</g>
	<g display="inline">
		<path fill="#8CBF3F" d="M82.499,148.064l-0.77-0.266c-23.821-8.258-39.019-22.082-46.462-42.262
			c-6.375-17.281-6.013-36.304-5.692-53.088c0.068-3.567,0.132-6.937,0.132-10.208v-2.346h2.347c20.341,0,35.85-5.87,48.808-18.471
			l1.637-1.593l1.637,1.593c12.958,12.601,28.47,18.471,48.812,18.471h2.347v2.346c0,3.271,0.063,6.641,0.132,10.207
			c0.319,16.785,0.683,35.808-5.693,53.089c-7.444,20.18-22.644,34.004-46.466,42.262L82.499,148.064z M34.392,44.562
			c-0.02,2.578-0.071,5.219-0.123,7.976c-0.312,16.369-0.667,34.92,5.402,51.375c6.847,18.562,20.86,31.383,42.828,39.18
			c21.969-7.797,35.982-20.619,42.833-39.18c6.067-16.455,5.714-35.007,5.401-51.376c-0.054-2.757-0.102-5.397-0.123-7.975
			c-19.676-0.423-35.071-6.255-48.111-18.229C69.459,38.307,54.066,44.139,34.392,44.562z"/>
	</g>
	<g display="inline">
		<g>
			<path fill="#8CBF3F" d="M57.878,80.75l19.295,19.296l29.947-29.948l-7.467-7.467l-22.48,22.48L65.347,73.281L57.878,80.75z"/>
		</g>
	</g>
</g>
<g id="correo_medico" display="none">
	<g display="inline">
		<g>
			<path fill="#8CBF3F" d="M13.363,158.236c0,0.077,0.037,0.146,0.045,0.218c0.013,0.165,0.048,0.323,0.097,0.485
				c0.051,0.165,0.109,0.313,0.188,0.464c0.038,0.063,0.043,0.139,0.084,0.205c0.069,0.104,0.16,0.189,0.245,0.28
				c0.039,0.043,0.067,0.084,0.108,0.125c0.204,0.193,0.433,0.346,0.68,0.459c0.052,0.025,0.109,0.045,0.162,0.062
				c0.277,0.104,0.563,0.17,0.856,0.172h0.005h133.393h0.004c0.291-0.002,0.578-0.068,0.854-0.172
				c0.057-0.02,0.112-0.038,0.164-0.062c0.25-0.113,0.477-0.263,0.679-0.459c0.042-0.041,0.071-0.082,0.109-0.125
				c0.081-0.091,0.174-0.176,0.246-0.28c0.042-0.066,0.047-0.14,0.082-0.205c0.079-0.15,0.142-0.297,0.187-0.464
				c0.055-0.162,0.086-0.32,0.102-0.485c0.006-0.072,0.043-0.141,0.043-0.218V79.189c0-0.076-0.037-0.143-0.043-0.217
				c-0.009-0.086,0.011-0.17-0.006-0.257c-0.019-0.09-0.068-0.167-0.099-0.254c-0.047-0.152-0.102-0.288-0.173-0.426
				c-0.038-0.069-0.051-0.151-0.091-0.215c-0.002-0.001-0.002-0.004-0.002-0.004c-0.049-0.066-0.118-0.104-0.169-0.163
				c-0.103-0.136-0.222-0.25-0.354-0.358c-0.062-0.049-0.097-0.118-0.163-0.163l-0.002-0.004c-0.006-0.002-0.011-0.004-0.016-0.007
				l-18.646-12.426V5.082c0-1.366-1.103-2.471-2.472-2.471H35.596c-1.367,0-2.472,1.105-2.472,2.471v59.613L14.48,77.121
				c-0.006,0.005-0.01,0.007-0.015,0.012h-0.003c-0.051,0.035-0.074,0.084-0.12,0.122c-0.017,0.012-0.029,0.031-0.045,0.046
				c-0.132,0.107-0.249,0.221-0.354,0.353c-0.054,0.062-0.123,0.099-0.167,0.166c0,0,0,0.004-0.002,0.005
				c-0.044,0.064-0.055,0.146-0.091,0.215c-0.073,0.138-0.129,0.274-0.171,0.426c-0.028,0.085-0.083,0.161-0.1,0.252
				c-0.018,0.084,0.003,0.17-0.006,0.258c-0.005,0.07-0.042,0.136-0.042,0.212V158.236z M38.064,7.553h88.93V91.04l-13.039,8.695
				c-0.45-0.473-1.079-0.774-1.784-0.774h-7.409c-1.367,0-2.47,1.104-2.47,2.47c0,1.365,1.103,2.469,2.47,2.469h2.947
				l-19.108,12.742c-0.016,0.008-0.027,0.017-0.044,0.027l-6.027,4.015l-6.041-4.03c-0.005-0.002-0.011-0.004-0.015-0.009
				l-4.302-2.865h2.931c1.365,0,2.469-1.104,2.469-2.469c0-1.367-1.104-2.473-2.469-2.473H64.76l-7.409-4.939h32.586
				c1.364,0,2.467-1.104,2.467-2.47c0-1.366-1.103-2.471-2.467-2.471H50.417c-0.131,0-0.242,0.055-0.366,0.074L38.064,91.04V7.553z
				 M81.159,125.708c0.032,0.021,0.063,0.029,0.097,0.047c0.138,0.082,0.282,0.147,0.435,0.204c0.061,0.022,0.123,0.051,0.187,0.07
				c0.205,0.055,0.416,0.088,0.626,0.092c0.009,0,0.016,0.002,0.022,0.002h0.003h0.003c0.006,0,0.017-0.002,0.026-0.002
				c0.209-0.004,0.42-0.037,0.621-0.092c0.066-0.02,0.129-0.05,0.191-0.07c0.15-0.057,0.295-0.122,0.434-0.204
				c0.033-0.018,0.063-0.026,0.096-0.047l6.041-4.029l51.125,34.087H23.994l51.126-34.085L81.159,125.708z M94.395,118.713
				l52.362-34.91v69.817L94.395,118.713z M70.665,118.713L18.304,153.62V83.803L70.665,118.713z M144.772,79.189l-12.838,8.559
				V70.629L144.772,79.189z M33.124,87.748l-12.837-8.559l12.837-8.56V87.748z"/>
			<path fill="#8CBF3F" d="M82.529,59.431c12.261,0,22.233-9.971,22.233-22.233c0-12.259-9.973-22.23-22.233-22.23
				c-12.259,0-22.232,9.972-22.232,22.23C60.297,49.46,70.27,59.431,82.529,59.431 M82.529,19.907
				c9.532,0,17.291,7.76,17.291,17.291c0,9.534-7.759,17.292-17.291,17.292c-9.532,0-17.29-7.758-17.29-17.292
				C65.239,27.667,72.998,19.907,82.529,19.907"/>
			<path fill="#8CBF3F" d="M75.12,39.669h4.938v4.94c0,1.367,1.107,2.471,2.471,2.471c1.365,0,2.473-1.104,2.473-2.471v-4.94h4.938
				c1.365,0,2.471-1.103,2.471-2.47c0-1.365-1.105-2.469-2.471-2.469h-4.938v-4.941c0-1.366-1.107-2.47-2.473-2.47
				c-1.364,0-2.471,1.104-2.471,2.47v4.941H75.12c-1.366,0-2.47,1.104-2.47,2.469C72.649,38.566,73.754,39.669,75.12,39.669"/>
			<path fill="#8CBF3F" d="M50.417,74.255h29.628c1.365,0,2.472-1.103,2.472-2.47c0-1.366-1.107-2.469-2.472-2.469H50.417
				c-1.365,0-2.472,1.103-2.472,2.469C47.944,73.152,49.051,74.255,50.417,74.255"/>
			<path fill="#8CBF3F" d="M102.292,71.785c0,1.366,1.103,2.471,2.471,2.471h7.41c1.365,0,2.471-1.105,2.471-2.471
				c0-1.365-1.105-2.471-2.471-2.471h-7.41C103.395,69.314,102.292,70.42,102.292,71.785"/>
			<path fill="#8CBF3F" d="M50.417,84.137h17.266c1.365,0,2.468-1.104,2.468-2.471c0-1.365-1.103-2.469-2.468-2.469H50.417
				c-1.365,0-2.472,1.104-2.472,2.469C47.944,83.033,49.051,84.137,50.417,84.137"/>
			<path fill="#8CBF3F" d="M112.173,79.196h-7.411c-1.367,0-2.471,1.104-2.471,2.471c0,1.366,1.104,2.47,2.471,2.47h7.411
				c1.365,0,2.471-1.104,2.471-2.47C114.644,80.3,113.538,79.196,112.173,79.196z"/>
			<path fill="#8CBF3F" d="M50.417,94.019h24.683c1.366,0,2.471-1.105,2.471-2.473c0-1.364-1.105-2.468-2.471-2.468H50.417
				c-1.365,0-2.472,1.104-2.472,2.468C47.944,92.913,49.051,94.019,50.417,94.019"/>
			<path fill="#8CBF3F" d="M112.173,89.078h-7.411c-1.367,0-2.471,1.104-2.471,2.47c0,1.365,1.104,2.469,2.471,2.469h7.411
				c1.365,0,2.471-1.104,2.471-2.469C114.644,90.182,113.538,89.078,112.173,89.078"/>
		</g>
	</g>
</g>
<g id="Capa_5_copia" display="none">
	<g display="inline">
		<path fill="#8CBF3F" d="M145.488,60.852c-1.344,0-2.433-1.09-2.433-2.435c0-2.068-3.279-14.486-12.56-26.726
			C122.554,21.218,107.57,8.616,84.875,8.618c-22.333,0-38.405,7.785-51.251,24.35c-9.668,12.467-12.75,25.15-12.78,25.277
			c-0.31,1.308-1.621,2.12-2.927,1.81c-1.308-0.308-2.118-1.616-1.812-2.924c0.13-0.553,3.296-13.694,13.55-26.988
			C39.158,17.822,54.993,3.75,84.875,3.75c24.693-0.001,40.892,13.648,49.5,25c9.649,12.726,13.548,26.194,13.548,29.667
			C147.923,59.762,146.834,60.852,145.488,60.852z"/>
	</g>
	<g display="inline">
		<path fill="#8CBF3F" d="M110.28,34.415c-0.588,0-1.178-0.211-1.646-0.641c-24.044-22.063-48.829-3.121-49.811-2.21
			c-0.985,0.914-2.524,0.858-3.439-0.125c-0.915-0.983-0.862-2.52,0.119-3.437c0.272-0.254,29.025-22.954,56.423,2.184
			c0.99,0.909,1.057,2.448,0.147,3.439C111.594,34.149,110.938,34.415,110.28,34.415z"/>
	</g>
	<g display="inline">
		<path fill="#8CBF3F" d="M29.957,127.151c-13.757,0-13.916-9.973-13.916-10.073V84.285c0-6.188,3.464-6.489,9.587-6.489
			l1.844,0.006c0.763,0.003,1.59,0.006,2.485,0.006c9.592,0,13.276,6.608,13.883,10.104l0.037,0.416v27.404
			C43.876,121.416,39.572,127.151,29.957,127.151z M21.002,82.947c-0.039,0.169-0.094,0.545-0.094,1.338v32.793
			c0.02,0.497,0.438,5.205,9.048,5.205c6.673,0,9.051-3.384,9.051-6.551V88.584c-0.264-1.089-1.84-5.907-9.051-5.907
			c-0.903,0-1.737-0.004-2.506-0.007l-1.823-0.006C24.452,82.665,21.784,82.665,21.002,82.947z"/>
	</g>
	<g display="inline">
		<path fill="#8CBF3F" d="M142.036,127.381c-12.38,0-19.802-4.676-20.365-12.832c-0.9-13.053-0.036-24.576,0.002-25.061l0,0
			c0.093-1.375,1.321-12.874,16.102-12.874c2.776,0,5.906,0.421,9.304,1.253l1.855,0.454v48.544l-2.132,0.267
			C146.722,127.144,144.779,127.381,142.036,127.381z M137.774,81.482c-10.935,0-11.234,7.909-11.242,8.245l-0.007,0.134
			c-0.009,0.115-0.873,11.67,0.002,24.353c0.566,8.201,12.627,8.481,17.539,8.252V82.181
			C141.771,81.717,139.662,81.482,137.774,81.482z"/>
	</g>
	<g display="inline">
		<path fill="#8CBF3F" d="M127.264,148.265H95.37c-1.344,0-2.435-1.091-2.435-2.435s1.091-2.434,2.435-2.434h31.894
			c5.318,0,9.448-1.529,12.271-4.543c5.037-5.378,4.542-13.886,4.536-13.971c-0.088-1.339,0.926-2.499,2.264-2.591
			c1.346-0.097,2.499,0.917,2.593,2.256c0.031,0.432,0.669,10.652-5.81,17.602C139.334,146.207,134.001,148.265,127.264,148.265z"/>
	</g>
	<g display="inline">
		<path fill="#8CBF3F" d="M82.486,161.147c-8.446,0-15.319-6.871-15.319-15.317s6.873-15.319,15.319-15.319
			c8.447,0,15.317,6.873,15.317,15.319S90.934,161.147,82.486,161.147z M82.486,135.379c-5.763,0-10.45,4.689-10.45,10.451
			s4.688,10.449,10.45,10.449c5.762,0,10.449-4.688,10.449-10.449S88.248,135.379,82.486,135.379z"/>
	</g>
	<circle display="inline" fill="#8CBF3F" cx="83.51" cy="70.958" r="32.799"/>
	<g display="inline">
		<path fill="#FFFFFF" d="M83.51,50.525c-2.372,0-4.301,1.93-4.301,4.304c0,2.37,1.929,4.299,4.301,4.299s4.301-1.929,4.301-4.299
			C87.811,52.455,85.882,50.525,83.51,50.525z"/>
		<path fill="#FFFFFF" d="M83.511,65.58c-1.782,0-3.228,1.445-3.228,3.227v19.356c0,1.782,1.445,3.227,3.228,3.227
			s3.225-1.444,3.225-3.227V68.807C86.735,67.025,85.293,65.58,83.511,65.58z"/>
	</g>
</g>
<g id="app" display="none">
	<g display="inline">
		<path fill="#8CBF3F" d="M114.672,160.135H50.329c-8.03,0-14.563-6.533-14.563-14.563V18.098c0-8.031,6.533-14.564,14.563-14.564
			h64.343c8.03,0,14.562,6.533,14.562,14.564v127.474C129.234,153.602,122.702,160.135,114.672,160.135z M50.329,8.534
			c-5.273,0-9.563,4.291-9.563,9.564v127.474c0,5.273,4.29,9.563,9.563,9.563h64.343c5.272,0,9.562-4.29,9.562-9.563V18.098
			c0-5.273-4.29-9.564-9.562-9.564H50.329z"/>
	</g>
	<g display="inline">
		<rect x="38.266" y="29.872" fill="#8CBF3F" width="88.469" height="5"/>
	</g>
	<g display="inline">
		<rect x="38.266" y="127.289" fill="#8CBF3F" width="88.469" height="5"/>
	</g>
	<g display="inline">
		<path fill="#8CBF3F" d="M90.442,21.703H74.458c-1.381,0-2.5-1.119-2.5-2.5s1.119-2.5,2.5-2.5h15.985c1.381,0,2.5,1.119,2.5,2.5
			S91.823,21.703,90.442,21.703z"/>
	</g>
	<g display="inline">
		<path fill="#8CBF3F" d="M87.85,143.743c0,2.954-2.394,5.349-5.348,5.349l0,0c-2.956,0-5.35-2.395-5.35-5.349l0,0
			c0-2.955,2.394-5.35,5.35-5.35l0,0C85.456,138.394,87.85,140.788,87.85,143.743L87.85,143.743z"/>
	</g>
</g>
<g id="mas_doctores" display="none">
	<g display="inline">
		<g>
			<path fill="#8CBF3F" d="M138.644,39.954h-27.367c-1.177,0-2.13,0.953-2.13,2.13c0,1.176,0.953,2.13,2.13,2.13h27.367
				c3.522,0,6.389,2.866,6.389,6.388v72.312c0,3.522-2.866,6.392-6.389,6.392H84.915h-0.022h-0.023H68.314h-0.023h-0.02h-53.73
				c-3.523,0-6.389-2.869-6.389-6.392V50.603c0-3.522,2.866-6.388,6.389-6.388h35.175v2.142c0,0.712,0.031,1.417,0.086,2.116H15.393
				c-1.644,0-2.982,1.338-2.982,2.981v52.826c0,1.174,0.955,2.129,2.13,2.129s2.13-0.955,2.13-2.129V52.733h33.801
				c1.82,7.573,6.805,13.923,13.455,17.529v4.772c0,1.117-0.713,2.109-1.775,2.465l-20.559,6.913
				c-6.655,2.234-11.127,8.45-11.127,15.468v20.908H16.671v-6.568c0-1.177-0.955-2.13-2.13-2.13s-2.13,0.953-2.13,2.13v7.846
				c0,1.644,1.338,2.982,2.982,2.982h122.398c1.646,0,2.982-1.339,2.982-2.982V51.454c0-1.643-1.337-2.981-2.982-2.981h-34.387
				c0.041-0.611,0.062-1.229,0.062-1.849v-23.95c0-7.099-5.773-12.873-12.873-12.873H62.591c-7.098,0-12.875,5.774-12.875,12.873
				v17.28H14.541c-5.872,0-10.649,4.776-10.649,10.649v72.312c0,5.873,4.777,10.649,10.649,10.649h51.621v8.855H63.47
				c-5.4,0-9.796,4.396-9.796,9.798c0,1.646,1.336,2.981,2.982,2.981h39.871c1.646,0,2.982-1.336,2.982-2.981
				c0-5.401-4.394-9.798-9.796-9.798h-2.69v-8.855h51.62c5.87,0,10.648-4.776,10.648-10.649V50.603
				C149.292,44.729,144.514,39.954,138.644,39.954 M118.458,120.785H34.727V99.878c0-5.184,3.306-9.777,8.225-11.43l4.812-1.616
				c-0.275,1.549-0.391,3.125-0.331,4.714c0.055,1.45,0.252,2.889,0.589,4.298c-4.658,1.224-8.102,5.47-8.102,10.505v7.008
				c0,1.983,1.611,3.599,3.594,3.599h1.993c1.176,0,2.128-0.954,2.128-2.13s-0.952-2.13-2.128-2.13h-1.328v-6.347
				c0-3.637,2.958-6.595,6.594-6.599h0.004h0.007c3.635,0.005,6.592,2.963,6.592,6.599v6.345h-1.328
				c-1.175,0-2.128,0.956-2.128,2.131c0,1.177,0.953,2.13,2.128,2.13h1.992c1.982,0,3.596-1.614,3.596-3.598v-7.008
				c0-5.45-4.036-9.973-9.274-10.74c-0.391-1.38-0.617-2.792-0.671-4.223c-0.079-2.094,0.208-4.162,0.849-6.161l9.562-3.214
				L74.119,94.02c1.494,1.491,3.927,1.491,5.421,0l11.899-11.89l10.454,3.515c0.763,1.991,1.149,4.137,1.131,6.257
				c-0.019,1.906-0.372,3.828-1.023,5.628c-4.686,0.721-8.286,4.776-8.286,9.656c0,5.384,4.384,9.769,9.776,9.769
				c5.391,0,9.776-4.385,9.776-9.769c0-4.383-2.903-8.099-6.889-9.334c0.573-1.917,0.886-3.921,0.906-5.909
				c0.016-1.552-0.148-3.115-0.475-4.646l3.425,1.152c4.917,1.652,8.224,6.244,8.224,11.43V120.785z M87.344,80.2L76.829,90.704
				L66.084,79.971c1.313-1.265,2.103-3.029,2.103-4.938v-2.922c2.618,0.875,5.411,1.353,8.311,1.364h0.097
				c2.898,0,5.727-0.456,8.402-1.333v2.891C84.996,77.058,85.885,78.925,87.344,80.2 M103.486,101.679h0.006
				c3.042,0,5.514,2.473,5.514,5.507c0,3.036-2.473,5.508-5.516,5.508c-3.041,0-5.515-2.472-5.515-5.508
				C97.976,104.151,100.448,101.68,103.486,101.679 M102.771,52.733h33.743v68.052h-13.798V99.878
				c0-7.016-4.472-13.231-11.127-15.468L91.032,77.5c-1.062-0.356-1.774-1.349-1.774-2.467v-4.714
				c2.291-1.227,4.418-2.796,6.315-4.686C99.187,62.03,101.646,57.58,102.771,52.733 M53.976,22.673c0-4.75,3.864-8.614,8.615-8.614
				h28.003c4.749,0,8.614,3.864,8.614,8.614v12.764c-2.165-0.246-4.834-0.895-7.569-2.412c-2.41-1.336-4.495-3.125-6.195-5.315
				c-1.093-1.408-3.11-1.743-4.59-0.763c-2.916,1.934-6.031,3.572-9.256,4.87c-5.596,2.251-11.512,3.495-17.621,3.715V22.673z
				 M53.976,39.798c6.657-0.222,13.108-1.574,19.209-4.03c3.257-1.308,6.404-2.938,9.375-4.846c1.963,2.376,4.32,4.335,7.014,5.829
				c3.516,1.947,6.939,2.716,9.635,2.97v6.902c0,6.046-2.36,11.723-6.643,15.992c-1.839,1.833-3.938,3.31-6.212,4.398
				c-0.092,0.035-0.184,0.079-0.27,0.126c-2.959,1.37-6.207,2.086-9.572,2.075c-12.424-0.043-22.536-10.298-22.536-22.858
				C53.976,46.329,53.975,39.82,53.976,39.798 M70.422,133.564h12.343v8.855H70.422V133.564z M89.714,146.681
				c2.612,0,4.809,1.821,5.387,4.26H58.084c0.578-2.438,2.773-4.26,5.386-4.26H89.714z"/>
		</g>
	</g>
	<g display="inline">
		<circle fill="#FFFFFF" cx="133.39" cy="113.705" r="27.792"/>
		<path fill="#8CBF3F" d="M133.39,143.498c-16.428,0-29.792-13.365-29.792-29.793s13.364-29.793,29.792-29.793
			s29.792,13.365,29.792,29.793S149.817,143.498,133.39,143.498z M133.39,87.912c-14.222,0-25.792,11.57-25.792,25.793
			s11.57,25.793,25.792,25.793s25.792-11.57,25.792-25.793S147.611,87.912,133.39,87.912z"/>
	</g>
	<g id="Page-1_1_" display="inline">
		<g id="Pago-Movil---Afiliar---Propio" transform="translate(-517.000000, -560.000000)">
			<g id="Group-7" transform="translate(494.000000, 538.000000)">
				<g id="Group-9" transform="translate(23.000000, 22.000000)">
					<g id="Page-1">
						<path fill="#8CBF3F" d="M142.439,114.782h-7.602v7.899c0,0.795-0.648,1.435-1.447,1.435s-1.447-0.64-1.447-1.435v-7.899
							h-7.604c-0.803,0-1.451-0.643-1.451-1.434c0-0.794,0.648-1.438,1.451-1.438h7.604v-7.181c0-0.792,0.648-1.436,1.447-1.436
							s1.447,0.644,1.447,1.436v7.181h7.602c0.801,0,1.451,0.644,1.451,1.438C143.891,114.14,143.24,114.782,142.439,114.782"/>
						<path fill="#8CBF3F" d="M133.391,125.091c-1.336,0-2.424-1.081-2.424-2.409v-6.924h-6.627c-1.338,0-2.426-1.081-2.426-2.409
							c0-1.331,1.088-2.412,2.426-2.412h6.627v-6.206c0-1.329,1.088-2.41,2.424-2.41c1.334,0,2.422,1.081,2.422,2.41v6.206h6.627
							c1.338,0,2.426,1.081,2.426,2.412c0,1.328-1.088,2.409-2.426,2.409h-6.627v6.924
							C135.812,124.01,134.725,125.091,133.391,125.091z M124.34,112.887c-0.262,0-0.475,0.21-0.475,0.462
							c0,0.255,0.213,0.46,0.475,0.46h8.578v8.873c0,0.509,0.945,0.509,0.945,0v-8.873h8.576c0.264,0,0.477-0.205,0.477-0.46
							c0-0.252-0.213-0.462-0.477-0.462h-8.576v-8.156c0-0.506-0.945-0.506-0.945,0v8.156H124.34z"/>
					</g>
				</g>
			</g>
		</g>
	</g>
</g>
<g id="mas_doctores_copia" display="none">
	<g display="inline">
		<g>
			<path fill="#8CBF3F" d="M135.511,125.659h-15.025v-22.767c0-7.641-4.87-14.409-12.117-16.845l-22.387-7.525
				c-1.156-0.388-1.933-1.469-1.933-2.686v-5.133c2.495-1.336,4.812-3.044,6.878-5.103c3.935-3.923,6.613-8.77,7.838-14.048
				c0.375-1.439,0.689-4.639,0.689-4.639c0.045-0.666,0.068-1.339,0.068-2.014V18.819c0-7.731-6.287-14.019-14.019-14.019H55.01
				c-7.729,0-14.02,6.288-14.02,14.019v18.817c0,0-0.39,10.061,0.823,13.917c2.546,8.09,7.41,15.161,14.652,19.088v5.197
				c0,1.216-0.777,2.297-1.933,2.685L32.144,86.05c-7.247,2.434-12.117,9.202-12.117,16.845v22.769 M136.9,130.302
				c1.792,0,3.248-1.458,3.248-3.249 M40.99,42.276v2.333c0,0.776,0.033,1.543,0.093,2.305 M115.848,125.659H24.667v-22.767
				c0-5.646,3.6-10.647,8.957-12.446l5.239-1.761c-0.299,1.687-0.425,3.403-0.36,5.133c0.06,1.579,0.275,3.146,0.642,4.68
				c-5.072,1.333-8.823,5.957-8.823,11.44v7.631c0,2.16,1.755,3.92,3.914,3.92h2.17c1.28,0,2.317-1.04,2.317-2.32
				s-1.037-2.318-2.317-2.318h-1.446v-6.912c0-3.961,3.221-7.182,7.181-7.186h0.004h0.008c3.959,0.005,7.179,3.226,7.179,7.186
				v6.909h-1.446c-1.28,0-2.317,1.041-2.317,2.32c0,1.281,1.038,2.319,2.317,2.319h2.168c2.159,0,3.916-1.758,3.916-3.918v-7.631
				c0-5.936-4.395-10.859-10.099-11.696c-0.426-1.503-0.672-3.039-0.73-4.598c-0.085-2.28,0.227-4.533,0.924-6.709l10.413-3.5
				l13.088,13.077c1.626,1.623,4.276,1.623,5.903,0l12.957-12.948l11.385,3.828c0.83,2.168,1.251,4.504,1.23,6.813
				c-0.02,2.075-0.404,4.168-1.113,6.128c-5.104,0.785-9.023,5.202-9.023,10.516c0,5.863,4.773,10.638,10.646,10.638
				c5.87,0,10.646-4.774,10.646-10.638c0-4.772-3.162-8.819-7.502-10.164c0.625-2.088,0.965-4.27,0.987-6.436
				c0.017-1.689-0.162-3.392-0.517-5.06l3.729,1.256c5.354,1.799,8.955,6.799,8.955,12.446V125.659z M81.966,81.464L70.515,92.902
				L58.814,81.214c1.43-1.378,2.289-3.299,2.289-5.378v-3.182c2.851,0.952,5.892,1.473,9.05,1.485h0.106
				c3.156,0,6.236-0.496,9.149-1.452v3.148C79.408,78.042,80.376,80.075,81.966,81.464 M99.544,104.853h0.006
				c3.313,0,6.005,2.693,6.005,5.997c0,3.307-2.692,5.998-6.007,5.998c-3.312,0-6.005-2.691-6.005-5.998
				C93.543,107.546,96.235,104.854,99.544,104.853 M45.628,18.819c0-5.173,4.208-9.381,9.381-9.381h30.494
				c5.172,0,9.381,4.208,9.381,9.381v13.899c-2.358-0.268-5.265-0.974-8.243-2.626c-2.624-1.456-4.895-3.403-6.746-5.789
				c-1.19-1.533-3.387-1.897-4.999-0.831c-3.175,2.106-6.568,3.89-10.079,5.303c-6.094,2.451-12.536,3.806-19.189,4.046V18.819z
				 M45.628,37.467c7.25-0.242,14.275-1.714,20.918-4.388c3.546-1.424,6.974-3.199,10.208-5.278
				c2.137,2.588,4.705,4.721,7.638,6.348c3.827,2.121,7.556,2.958,10.491,3.234V44.9c0,6.583-2.57,12.766-7.234,17.415
				c-2.002,1.996-4.288,3.604-6.764,4.79c-0.1,0.038-0.2,0.086-0.294,0.137c-3.222,1.492-6.759,2.272-10.423,2.26
				c-13.53-0.048-24.542-11.214-24.542-24.893C45.628,44.578,45.627,37.491,45.628,37.467"/>
		</g>
	</g>
	<path display="inline" fill="none" stroke="#8CBF3F" stroke-width="4.6" stroke-miterlimit="10" d="M22.366,125.312
		c0,0-1.848,19.094,20.204,19.094c41.53,0,85.983,0,85.983,0"/>
	<g display="inline">
		<circle fill="#FFFFFF" cx="112.531" cy="127.388" r="30.265"/>
		<path fill="#8CBF3F" d="M112.53,159.831c-17.89,0-32.441-14.555-32.441-32.443c0-17.89,14.552-32.444,32.441-32.444
			s32.442,14.555,32.442,32.444C144.973,145.276,130.42,159.831,112.53,159.831z M112.53,99.3c-15.486,0-28.087,12.6-28.087,28.088
			c0,15.487,12.601,28.087,28.087,28.087s28.087-12.6,28.087-28.087C140.617,111.899,128.017,99.3,112.53,99.3z"/>
	</g>
	<g id="Page-1_2_" display="inline">
		<g id="Pago-Movil---Afiliar---Propio_1_" transform="translate(-517.000000, -560.000000)">
			<g id="Group-7_1_" transform="translate(494.000000, 538.000000)">
				<g id="Group-9_1_" transform="translate(23.000000, 22.000000)">
					<g id="Page-1_3_">
						<path fill="#8CBF3F" d="M122.385,128.561h-8.277v8.602c0,0.866-0.706,1.562-1.576,1.562s-1.575-0.696-1.575-1.562v-8.602
							h-8.28c-0.874,0-1.581-0.7-1.581-1.561c0-0.865,0.707-1.566,1.581-1.566h8.28v-7.819c0-0.862,0.705-1.563,1.575-1.563
							s1.576,0.701,1.576,1.563v7.819h8.277c0.872,0,1.581,0.701,1.581,1.566C123.966,127.86,123.257,128.561,122.385,128.561"/>
						<path fill="#8CBF3F" d="M112.531,139.786c-1.454,0-2.639-1.178-2.639-2.624v-7.54h-7.217c-1.458,0-2.642-1.177-2.642-2.622
							c0-1.45,1.184-2.627,2.642-2.627h7.217v-6.759c0-1.447,1.185-2.625,2.639-2.625c1.453,0,2.638,1.178,2.638,2.625v6.759h7.216
							c1.458,0,2.643,1.177,2.643,2.627c0,1.445-1.185,2.622-2.643,2.622h-7.216v7.54
							C115.169,138.608,113.984,139.786,112.531,139.786z M102.676,126.496c-0.285,0-0.518,0.229-0.518,0.504
							c0,0.277,0.232,0.5,0.518,0.5h9.341v9.662c0,0.555,1.029,0.555,1.029,0V127.5h9.339c0.288,0,0.521-0.223,0.521-0.5
							c0-0.274-0.232-0.504-0.521-0.504h-9.339v-8.882c0-0.551-1.029-0.551-1.029,0v8.882H102.676z"/>
					</g>
				</g>
			</g>
		</g>
	</g>
	<rect x="24.667" y="125.422" display="inline" fill="#FFFFFF" width="55.421" height="0.347"/>
</g>
</svg>
